<?xml version="1.0" standalone="no"?><!DOCTYPE svg PUBLIC "-//W3C//DTD SVG 1.1//EN" "http://www.w3.org/Graphics/SVG/1.1/DTD/svg11.dtd"><svg xmlns="http://www.w3.org/2000/svg" xmlns:xlink="http://www.w3.org/1999/xlink"><symbol class="aicon" viewBox="0 0 1024 1024" id="md" xmlns="http://www.w3.org/2000/svg"><path d="M0 686.081a332.799 332.799 0 1 0 665.598 0 332.799 332.799 0 1 0-665.598 0Z" fill="#fff"/><path d="M883.197 1024H243.2a141.056 141.056 0 0 1-140.8-140.8V140.803A141.056 141.056 0 0 1 243.2.003h516.35a89.088 89.088 0 0 1 63.233 25.6l189.695 189.695a38.4 38.4 0 0 1 11.52 27.904V883.2a141.056 141.056 0 0 1-140.8 140.8zM243.2 76.803a64 64 0 0 0-64 64V883.2a64 64 0 0 0 64 64h639.998a64 64 0 0 0 64-64V259.074l-179.2-179.2a12.8 12.8 0 0 0-8.447-3.071z" fill="#fff"/><path d="M354.559 399.106h40.96l41.216 112.896c5.12 15.103 9.728 30.463 15.104 45.823h1.536c5.12-15.36 9.472-30.72 14.848-45.823l40.96-114.176h41.215v226.047h-33.536V512.002c0-20.224 2.816-49.408 4.608-69.888l-18.176 51.2-39.423 107.775h-22.016l-39.68-107.775-17.92-51.2c1.536 20.48 4.352 49.664 4.352 69.888v111.871h-34.048zm254.975 0h58.624c69.376 0 109.056 38.4 109.056 112.128s-39.68 113.92-107.264 113.92h-60.416zm56.064 196.607c48.384 0 74.496-28.672 74.496-84.735s-25.6-83.2-74.496-83.2h-20.48v167.935z" fill="#fff"/></symbol><symbol class="bicon" viewBox="0 0 1024 1024" id="tools2" xmlns="http://www.w3.org/2000/svg"><path d="M631 602.1c0 32.8-26.6 59.4-59.5 59.4h-119c-32.9 0-59.5-26.6-59.5-59.4V545H128v356.6c0 32.3 26.4 58.4 59.1 58.4h649.8c32.7 0 59.1-26.1 59.1-58.4V545H631v57.1zm181.8-327.4V142c0-43-41.1-78-91.7-78H302.9c-50.6 0-91.7 35-91.7 78v132.6H64V514h329v-90c0-32.8 26.6-59.4 59.5-59.4h119c32.9 0 59.5 26.6 59.5 59.4v90h329V274.7H812.8zm-64 0H275.2V142c0-13 12.4-23.6 27.7-23.6H721c15.3 0 27.7 10.6 27.7 23.6v132.7z" fill="#fff"/></symbol></svg>