<?xml version="1.0" standalone="no"?><!DOCTYPE svg PUBLIC "-//W3C//DTD SVG 1.1//EN" "http://www.w3.org/Graphics/SVG/1.1/DTD/svg11.dtd"><svg xmlns="http://www.w3.org/2000/svg" xmlns:xlink="http://www.w3.org/1999/xlink"><symbol class="aicon" viewBox="0 0 1027 1024" id="about" xmlns="http://www.w3.org/2000/svg"><path d="M1016.12 168.947a18.277 18.277 0 0 0-20.815 3.565l-82.021 72.811c-41.306 41.302-108.513 41.302-149.814 0l-82.023-88.16a19.452 19.452 0 0 0-1.082-.978L614.007 96.99c-26.918-26.922-62.704-33.56-100.771-33.56-38.068 0-73.854 14.825-100.771 41.742l-66.882 60.748c-.17.154-.345.295-.504.453l-82.021 83.045c-41.3 41.306-108.516 41.301-149.816 0L31.22 172.512a18.28 18.28 0 0 0-20.843-3.555A18.282 18.282 0 0 0 .11 187.441l134.866 755.331c1.023 9.271 8.85 16.291 18.18 16.291h486.127c.225.002.447.017.672.017 35.348 0 64.003-27.632 64.003-62.98s-28.655-62.98-64.003-62.98c-.358 0-.71.021-1.068.026H253.423l-86.98-443.738c49.055 15.388 88.375 7.863 122.479-14.64l66.881-66.888c.165-.154.34-.296.506-.455l82.02-82.02c20.007-20.011 46.61-31.031 74.908-31.031 28.292 0 54.895 11.02 74.905 31.03l82.02 82.02c.346.346.709.66 1.08.975l66.362 59.2c41.674 41.673 86.825 46.368 129.804 22.832L755.436 959.06h110.748c9.346 0 17.189-7.05 18.182-16.346l142.055-755.331a18.282 18.282 0 0 0-10.3-18.435z" fill="#fff"/></symbol><symbol class="bicon" viewBox="0 0 1024 1024" id="archive" xmlns="http://www.w3.org/2000/svg"><path d="M298.667 550.4h426.666v-42.667H298.667V550.4zm0-132.267h426.666v-42.666H298.667v42.666zm0-136.533h426.666v-42.667H298.667V281.6zm576 388.267v183.466c0 34.134-29.867 64-64 64H213.333c-34.133 0-64-29.866-64-64V669.867H243.2c4.267 0 8.533 0 12.8 4.266L384 768c12.8 8.533 25.6 12.8 38.4 12.8h183.467c12.8 0 25.6-4.267 38.4-12.8l128-93.867c4.266-4.266 8.533-4.266 12.8-4.266h89.6zm0-42.667h-89.6c-12.8 0-25.6 4.267-38.4 12.8l-128 93.867c-4.267 4.266-8.534 4.266-12.8 4.266H418.133c-4.266 0-8.533 0-12.8-4.266l-128-93.867c-12.8-8.533-25.6-12.8-38.4-12.8h-89.6V170.667c0-34.134 29.867-64 64-64h597.334c34.133 0 64 29.866 64 64V627.2z" fill="#fff"/></symbol><symbol class="cicon" viewBox="0 0 1024 1024" id="category" xmlns="http://www.w3.org/2000/svg"><path d="M906.199 116.388H115.927c-34.314 0-62.147 27.837-62.147 62.172v.297c0 34.34 27.833 62.172 62.147 62.172h790.272c34.31 0 62.152-27.837 62.152-62.172v-.297c0-34.335-27.843-62.172-62.152-62.172zm-.317 331.054H116.25c-34.51 0-62.47 27.986-62.47 62.474v.492c0 34.488 27.956 62.469 62.47 62.469h789.632c34.508 0 62.469-27.981 62.469-62.47v-.49c0-34.49-27.96-62.475-62.47-62.475zm.317 331.848H115.927c-34.314 0-62.147 27.842-62.147 62.177v.297c0 34.34 27.833 62.177 62.147 62.177h790.272c34.31 0 62.152-27.837 62.152-62.177v-.297c0-34.335-27.843-62.177-62.152-62.177z" fill="#fff"/></symbol><symbol class="dicon" viewBox="0 0 1107 1024" id="guestbook" xmlns="http://www.w3.org/2000/svg"><path d="M987.198 0H119.872A120.05 120.05 0 0 0 0 119.873v505.39a120.05 120.05 0 0 0 119.872 119.871h93.074V968.62a54.666 54.666 0 0 0 90.752 41.624L592.39 753.708a30.548 30.548 0 0 1 20.366-7.681h375.157a120.05 120.05 0 0 0 119.693-120.765v-505.39A120.05 120.05 0 0 0 987.198.001zM798.37 463.41a41.446 41.446 0 0 1-41.445 41.445H350.325a41.446 41.446 0 0 1-41.446-41.445 41.446 41.446 0 0 1 41.446-41.446h406.599a41.446 41.446 0 0 1 41.445 41.446zm-41.445-145.24H350.325a41.446 41.446 0 1 1 0-82.892h406.599a41.446 41.446 0 0 1 0 82.892z" fill="#fff"/></symbol><symbol class="eicon" viewBox="0 0 1024 1024" id="home" xmlns="http://www.w3.org/2000/svg"><path d="M586.424 0C557.44 0 531.952 11.792 512 34.248 492.048 11.792 466.56 0 437.576 0c-58.552 0-104.424 48.664-104.424 110.792 0 65.208 50.704 108 120.88 167.232 12.24 10.328 24.904 21.016 38.32 32.64A29.89 29.89 0 0 0 512 318c7.008 0 14.008-2.44 19.648-7.328 13.416-11.632 26.08-22.32 38.32-32.656 65.072-54.92 120.88-99.624 120.88-167.224C690.848 48.664 644.976 0 586.424 0zm-55.152 232.16c-6.296 5.32-12.696 10.72-19.28 16.32a6454.4 6454.4 0 0 0-19.264-16.304c-67.248-56.76-99.576-85.632-99.576-121.384 0-25.24 15.264-50.792 44.424-50.792 32.216 0 44.672 39.704 45.536 42.592A29.872 29.872 0 0 0 512 124.896a29.872 29.872 0 0 0 28.888-22.304C541.752 99.704 554.208 60 586.424 60c29.16 0 44.424 25.552 44.424 50.792 0 37.248-37.832 69.264-99.576 121.376zM994 844a30 30 0 0 1 30 30v120a30 30 0 0 1-60 0v-30h-60v30a30 30 0 0 1-60 0v-30h-62v30a30 30 0 0 1-30 30H272a30 30 0 0 1-30-30v-30h-62v30a30 30 0 0 1-60 0v-30H60v30a30 30 0 0 1-60 0V874a30 30 0 0 1 60 0v30h60v-30a30 30 0 0 1 60 0v30h62V776.904c-34.096 12.08-75.064 2.824-100.272-28.696a89.896 89.896 0 0 1 14.08-126.496l299.888-241.904c33.192-26.544 79.416-26.544 112.512-.08l300.096 242.08c38.664 30.872 45.112 87.512 13.96 126.408A89.76 89.76 0 0 1 782 776.824V904h62v-30a30 30 0 0 1 60 0v30h60v-30a30 30 0 0 1 30-30zM542 964V844h-60v120h60zm180 0V735.248L512 567.264 302 735.248V964h120V814a30 30 0 0 1 30-30h120a30 30 0 0 1 30 30v150h120zM530.736 505.424l262.536 210a29.944 29.944 0 0 0 42.128-4.672 29.928 29.928 0 0 0-4.648-42.16l-300.12-242.088a29.808 29.808 0 0 0-37.368.08L193.36 668.504a29.936 29.936 0 0 0-4.8 42.216 29.944 29.944 0 0 0 42.144 4.72l262.552-210.016a30 30 0 0 1 37.472 0z" fill="#fff"/></symbol><symbol class="ficon" viewBox="0 0 1024 1024" id="md" xmlns="http://www.w3.org/2000/svg"><path d="M0 686.081a332.799 332.799 0 1 0 665.598 0 332.799 332.799 0 1 0-665.598 0Z" fill="#fff"/><path d="M883.197 1024H243.2a141.056 141.056 0 0 1-140.8-140.8V140.803A141.056 141.056 0 0 1 243.2.003h516.35a89.088 89.088 0 0 1 63.233 25.6l189.695 189.695a38.4 38.4 0 0 1 11.52 27.904V883.2a141.056 141.056 0 0 1-140.8 140.8zM243.2 76.803a64 64 0 0 0-64 64V883.2a64 64 0 0 0 64 64h639.998a64 64 0 0 0 64-64V259.074l-179.2-179.2a12.8 12.8 0 0 0-8.447-3.071z" fill="#fff"/><path d="M354.559 399.106h40.96l41.216 112.896c5.12 15.103 9.728 30.463 15.104 45.823h1.536c5.12-15.36 9.472-30.72 14.848-45.823l40.96-114.176h41.215v226.047h-33.536V512.002c0-20.224 2.816-49.408 4.608-69.888l-18.176 51.2-39.423 107.775h-22.016l-39.68-107.775-17.92-51.2c1.536 20.48 4.352 49.664 4.352 69.888v111.871h-34.048zm254.975 0h58.624c69.376 0 109.056 38.4 109.056 112.128s-39.68 113.92-107.264 113.92h-60.416zm56.064 196.607c48.384 0 74.496-28.672 74.496-84.735s-25.6-83.2-74.496-83.2h-20.48v167.935z" fill="#fff"/></symbol><symbol class="gicon" viewBox="0 0 1024 1024" id="nav-dark" xmlns="http://www.w3.org/2000/svg"><path d="M618.667 896H405.333c-12.8 0-21.333 8.533-21.333 21.333s8.533 21.334 21.333 21.334h213.334c12.8 0 21.333-8.534 21.333-21.334S631.467 896 618.667 896zm42.666-85.333H362.667c-12.8 0-21.334 8.533-21.334 21.333s8.534 21.333 21.334 21.333h298.666c12.8 0 21.334-8.533 21.334-21.333s-8.534-21.333-21.334-21.333zM512 0C311.467 0 149.333 157.867 149.333 349.867c0 102.4 46.934 198.4 125.867 264.533 17.067 12.8 25.6 34.133 25.6 55.467v29.866c0 38.4 32 70.4 68.267 70.4H652.8c38.4 0 68.267-32 68.267-70.4v-29.866c0-21.334 8.533-40.534 25.6-55.467 78.933-66.133 125.866-162.133 125.866-264.533C874.667 157.867 712.533 0 512 0zm232.533 392.533a19.12 19.12 0 0 1-19.2-19.2c-2.133-55.466-25.6-113.066-64-155.733-25.6-27.733-70.4-61.867-134.4-61.867-10.666 0-21.333-8.533-21.333-21.333s8.533-21.333 21.333-21.333c61.867 0 119.467 25.6 164.267 74.666C736 236.8 763.733 305.067 765.867 371.2c2.133 10.667-8.534 21.333-21.334 21.333zM576 981.333H448c-12.8 0-21.333 8.534-21.333 21.334S435.2 1024 448 1024h128c12.8 0 21.333-8.533 21.333-21.333S588.8 981.333 576 981.333z" fill="#fff"/></symbol><symbol class="hicon" viewBox="0 0 1024 1024" id="nav-sun" xmlns="http://www.w3.org/2000/svg"><path d="M183.488 512c0-176.736 143.264-320 320-320s320 143.264 320 320-143.264 320-320 320-320-143.264-320-320zM416 864h192a32 32 0 0 1 0 64H416a32 32 0 0 1 0-64zm64 96h64a32 32 0 0 1 0 64h-64a32 32 0 0 1 0-64zm1.76-960a32 32 0 0 1 32 32v64a32 32 0 1 1-64 0V32a32 32 0 0 1 32-32zm332.48 104.384a32 32 0 0 1 7.04 44.672l-37.6 51.776a32 32 0 0 1-51.776-37.6l37.6-51.776a32 32 0 0 1 44.704-7.072zM1007.456 340a32 32 0 0 1-20.544 40.32l-60.864 19.776a32 32 0 1 1-19.776-60.864l60.864-19.776a32 32 0 0 1 40.32 20.544zm0 316.416a32 32 0 0 1-40.32 20.544l-60.864-19.776a32 32 0 0 1 19.776-60.864l60.864 19.776a32 32 0 0 1 20.544 40.32zm-973.888 0a32 32 0 0 1 20.544-40.32l60.864-19.776a32 32 0 1 1 19.776 60.864L73.888 676.96a32 32 0 0 1-40.32-20.544zm0-316.416a32 32 0 0 1 40.32-20.544l60.864 19.776a32 32 0 1 1-19.776 60.864L54.112 380.32A32 32 0 0 1 33.568 340zM212.32 104.384a32 32 0 0 1 44.704 7.04l37.6 51.808a32 32 0 0 1-51.744 37.6l-37.632-51.776a32 32 0 0 1 7.072-44.672zM247.488 512a256 256 0 1 0 512 0 256 256 0 0 0-256-256 256 256 0 0 0-256 256z" fill="#fff"/></symbol><symbol class="iicon" viewBox="0 0 1024 1024" id="search" xmlns="http://www.w3.org/2000/svg"><path d="M995.436 872.918 786.888 664.302a89.417 89.417 0 0 0-27.254-18.087 410.955 410.955 0 0 0 68.982-227.99C828.616 190.1 643.73 5.24 415.606 5.24 187.504 5.239 2.62 190.123 2.62 418.226c0 228.102 184.885 412.987 412.987 412.987 84.359 0 162.644-25.606 228.058-68.982 4.245 9.822 10.003 19.193 17.996 27.209l208.638 208.593a88.468 88.468 0 0 0 125.138 0 88.423 88.423 0 0 0 0-125.115zM415.606 713.21c-162.937 0-294.984-132.048-294.984-294.962 0-162.937 132.047-294.984 294.984-294.984 162.96 0 294.985 132.047 294.985 294.984 0 162.914-132.025 294.962-294.985 294.962z" fill="#fff"/></symbol><symbol class="jicon" viewBox="0 0 1024 1024" id="tag" xmlns="http://www.w3.org/2000/svg"><path d="M931.48 1023.727a44.608 44.608 0 0 1-26.474-8.472L511.61 730.931l-393.395 284.192a44.74 44.74 0 0 1-46.858 4.103 45.137 45.137 0 0 1-24.223-39.71V45.005A45.005 45.005 0 0 1 92.14 0h839.472a45.005 45.005 0 0 1 45.004 45.005v933.717a45.27 45.27 0 0 1-45.137 45.005z" fill="#fff"/><path d="M277.851 223.833a38.784 38.784 0 0 0 38.783 38.65h390.483a38.784 38.784 0 0 0 0-77.434H316.634a38.784 38.784 0 0 0-38.783 38.784zm0 248.717a38.784 38.784 0 0 0 38.783 38.784h390.483a38.784 38.784 0 0 0 0-77.435H316.634a38.784 38.784 0 0 0-38.783 38.651z" fill="#fff"/></symbol><symbol class="kicon" viewBox="0 0 1024 1024" id="tools" xmlns="http://www.w3.org/2000/svg"><path d="M631 602.1c0 32.8-26.6 59.4-59.5 59.4h-119c-32.9 0-59.5-26.6-59.5-59.4V545H128v356.6c0 32.3 26.4 58.4 59.1 58.4h649.8c32.7 0 59.1-26.1 59.1-58.4V545H631v57.1zm181.8-327.4V142c0-43-41.1-78-91.7-78H302.9c-50.6 0-91.7 35-91.7 78v132.6H64V514h329v-90c0-32.8 26.6-59.4 59.5-59.4h119c32.9 0 59.5 26.6 59.5 59.4v90h329V274.7H812.8zm-64 0H275.2V142c0-13 12.4-23.6 27.7-23.6H721c15.3 0 27.7 10.6 27.7 23.6v132.7z" fill="#fff"/></symbol></svg>